<svg xmlns="http://www.w3.org/2000/svg" xmlns:xlink="http://www.w3.org/1999/xlink" viewBox="0 0 1080 1080"><defs><style>.a{fill:none;}.b{clip-path:url(#a);}.c,.d{fill:#010101;}.c,.e{fill-rule:evenodd;}.e{fill:#ee306f;}</style><clipPath id="a"><rect class="a" width="1080" height="1080"/></clipPath></defs><title>aeternity-logo-vector-white</title><g class="b"><path class="c" d="M359.04947,661.40929q-18.41789,0-28.6097-11.72138a30.68052,30.68052,0,0,1-12.52368,8.66224,47.676,47.676,0,0,1-17.54456,3.05914q-12.81179,0-20.09151-6.4084-7.28222-6.40439-7.27972-17.76264,0-11.50179,8.66224-17.76365,8.66274-6.25875,25.62558-6.2593h13.9062v-5.17q0-6.6234-3.4583-10.3748-3.45879-3.747-9.86568-3.7484-6.62349,0-10.81,3.2382a9.82162,9.82162,0,0,0-4.18656,8.046l-17.61759-1.3845q0-10.627,9.20945-17.3625,9.20743-6.73305,23.5508-6.7335,16.23307,0,24.31709,9.68159,9.53457-9.82723,24.096-9.68159,15.43176,0,24.098,9.42751,8.6613,9.42944,8.6622,26.53589v9.97373H338.59282q.65574,10.11978,6.18831,15.87093,5.53107,5.75165,15.28872,5.75015a36.67432,36.67432,0,0,0,17.76265-4.22058l4.4417-2.47692,5.3149,12.08651a37.846,37.846,0,0,1-12.7037,6.4054A53.77171,53.77171,0,0,1,359.04947,661.40929Zm-55.25566-13.397a23.17607,23.17607,0,0,0,9.17343-2.1478,27.70444,27.70444,0,0,0,8.22708-5.278V625.37082H306.924q-7.57184.14856-11.93746,3.60535a10.51935,10.51935,0,0,0-4.36963,8.55319,9.485,9.485,0,0,0,3.38426,7.60685Q297.38942,648.01578,303.79381,648.01228Zm52.63568-54.09018a15.353,15.353,0,0,0-11.82942,5.0218q-4.62474,5.027-5.78817,14.2714h32.9063v-2.1858q0-8.22315-3.96748-12.6668Q363.78174,593.92105,356.42949,593.9221Z"/><path class="c" d="M423.90981,562.03371v19.14718H437.814V594.2858H423.90981v43.97244q0,4.51518,1.78369,6.51543,1.78111,2.00325,6.3684,2.00275a27.32574,27.32574,0,0,0,6.18931-.72827v13.68611a43.61759,43.61759,0,0,1-11.64841,1.67463q-20.38365,0-20.38561-22.49541V594.2858H393.2604V581.18089h12.95679V562.03371Z"/><path class="c" d="M481.1051,661.40929q-16.8183,0-27.2642-10.593-10.4469-10.594-10.4469-28.21155V620.422a47.27079,47.27079,0,0,1,4.5507-21.0769,34.62541,34.62541,0,0,1,12.7768-14.45139,33.7778,33.7778,0,0,1,18.34581-5.16791q16.08749,0,24.86229,10.2648,8.77078,10.2654,8.7723,29.0469v7.13462H461.2317q.79978,9.75665,6.5134,15.43477a19.5627,19.5627,0,0,0,14.3794,5.67712,23.95821,23.95821,0,0,0,19.8024-9.82667l9.53649,9.1004a31.84062,31.84062,0,0,1-12.63069,10.95509,39.54327,39.54327,0,0,1-17.7276,3.89646m-2.11081-67.48719a14.90156,14.90156,0,0,0-11.75839,5.0949q-4.47767,5.0958-5.7151,14.1983h33.70759v-1.3115q-.5823-8.8833-4.73079-13.432-4.152-4.5483-11.50331-4.5497"/><path class="c" d="M565.92191,597.3432a43.77882,43.77882,0,0,0-7.20771-.5832q-12.15751,0-16.37909,9.3205v53.87215H524.64549V581.1812h16.8893l.4361,8.80929q6.4059-10.26388,17.7637-10.2648a16.56229,16.56229,0,0,1,6.26031,1.01831Z"/><path class="c" d="M591.8002,581.181l.51019,9.10139q8.73468-10.55789,22.9325-10.5569,24.60782,0,25.0434,28.17351v52.05345H622.5957v-51.033q0-7.49835-3.2402-11.1032-3.23969-3.60285-10.591-3.6033-10.7049,0-15.94391,9.6826v56.057H575.12991V581.181Z"/><path class="c" d="M652.58591,560.7251a9.38527,9.38527,0,0,1,2.583-6.7706q2.5839-2.69355,7.39069-2.695,4.80478,0,7.42581,2.695a9.319,9.319,0,0,1,2.62,6.7706,9.10034,9.10034,0,0,1-2.62,6.65941q-2.62293,2.66053-7.42581,2.658-4.80479,0-7.39069-2.658A9.16359,9.16359,0,0,1,652.58591,560.7251Zm1.09039,99.227h17.69061V581.18069H653.6763Z"/><path class="c" d="M713.88681,562.03371v19.14718H727.791V594.2858H713.88681v43.97244q0,4.51518,1.78369,6.51543,1.78111,2.00325,6.36841,2.00275a27.32559,27.32559,0,0,0,6.1893-.72827v13.68611a43.61759,43.61759,0,0,1-11.64841,1.67463q-20.38516,0-20.38559-22.49541V594.2858H683.23639V581.18089h12.95782V562.03371Z"/><path class="c" d="M770.25562,634.618l16.017-53.437h18.856l-31.30569,90.71091q-7.20873,19.87342-24.46012,19.87343a31.51058,31.51058,0,0,1-8.51819-1.31649V676.6957l3.34821.21909q6.697,0,10.08279-2.43591,3.38535-2.43842,5.351-8.18506l2.548-6.76453L734.5112,581.181h19.07419Z"/><path class="c" d="M361.48941,720.68318V697.22741h8.03844a9.81442,9.81442,0,0,1,6.05745,1.5953,5.6182,5.6182,0,0,1,2.0774,4.75259,5.06688,5.06688,0,0,1-.8702,2.90013,5.5963,5.5963,0,0,1-2.5454,1.99651,5.177,5.177,0,0,1,2.9418,1.94294,5.65935,5.65935,0,0,1,1.0381,3.42277,6.24174,6.24174,0,0,1-2.1203,5.074,9.2071,9.2071,0,0,1-6.06335,1.7715Zm4.07518-13.58035H369.56a4.60794,4.60794,0,0,0,2.97156-.86313,2.94457,2.94457,0,0,0,1.07144-2.43939,2.99533,2.99533,0,0,0-.9893-2.512,5.01023,5.01023,0,0,0-3.08585-.77385h-3.96326Zm0,2.99656v7.33008H370.091a4.38493,4.38493,0,0,0,2.99653-.95123,3.331,3.331,0,0,0,1.0798-2.64059q0-3.6573-3.73822-3.73826Z"/><polygon class="c" points="402.47 717.429 413.118 717.429 413.118 720.683 398.395 720.683 398.395 697.228 402.47 697.228 402.47 717.429"/><path class="c" d="M452.74651,709.5677a14.38539,14.38539,0,0,1-1.193,6.04788,9.007,9.007,0,0,1-3.40489,3.99541,9.98427,9.98427,0,0,1-10.18142,0,9.11081,9.11081,0,0,1-3.44769-3.97041,13.92223,13.92223,0,0,1-1.2334-5.9443V708.376a14.28879,14.28879,0,0,1,1.2143-6.0574,9.14015,9.14015,0,0,1,3.4335-4.018,9.332,9.332,0,0,1,5.08121-1.39411,9.438,9.438,0,0,1,5.08229,1.37506,9.04827,9.04827,0,0,1,3.424,3.96327,14.264,14.264,0,0,1,1.22512,6.01811Zm-4.07641-1.22386a10.24561,10.24561,0,0,0-1.47509-5.97764,5.20042,5.20042,0,0,0-8.31221-.006,10.0585,10.0585,0,0,0-1.5215,5.855v1.35244a10.15925,10.15925,0,0,0,1.5072,5.97645,4.85029,4.85029,0,0,0,4.1799,2.11081,4.79724,4.79724,0,0,0,4.16451-2.062,10.39568,10.39568,0,0,0,1.45719-6.02526Z"/><path class="c" d="M491.5524,713.04785a8.46022,8.46022,0,0,1-2.7715,5.85383,9.42905,9.42905,0,0,1-6.4277,2.10485,9.13888,9.13888,0,0,1-4.9383-1.331,8.70945,8.70945,0,0,1-3.293-3.77635,13.622,13.622,0,0,1-1.2084-5.68715v-2.19058a13.72668,13.72668,0,0,1,1.1763-5.84787,8.86622,8.86622,0,0,1,3.3751-3.899,9.40972,9.40972,0,0,1,5.0824-1.3691,9.05583,9.05583,0,0,1,6.2502,2.10366,8.78167,8.78167,0,0,1,2.7549,5.95145h-4.05969a5.78668,5.78668,0,0,0-1.475-3.65016,4.86954,4.86954,0,0,0-3.4704-1.11791,4.75159,4.75159,0,0,0-4.0824,1.94175,9.691,9.691,0,0,0-1.4595,5.70144v2.07985a10.29243,10.29243,0,0,0,1.36189,5.80383,4.51612,4.51612,0,0,0,3.98591,2.00008,5.26406,5.26406,0,0,0,3.60971-1.07981,5.62958,5.62958,0,0,0,1.5298-3.59182Z"/><polygon class="c" points="518.454 710.55 515.795 713.37 515.795 720.683 511.72 720.683 511.72 697.228 515.795 697.228 515.795 708.231 518.051 705.443 524.914 697.228 529.842 697.228 521.128 707.619 530.342 720.683 525.51 720.683 518.454 710.55"/><path class="c" d="M569.1489,713.04785a8.46489,8.46489,0,0,1-2.77161,5.85383,9.42874,9.42874,0,0,1-6.42758,2.10485,9.13833,9.13833,0,0,1-4.9383-1.331,8.7011,8.7011,0,0,1-3.293-3.77635A13.61872,13.61872,0,0,1,550.51,710.212v-2.19058a13.71032,13.71032,0,0,1,1.17618-5.84787,8.859,8.859,0,0,1,3.37521-3.899,9.40914,9.40914,0,0,1,5.08231-1.3691,9.05613,9.05613,0,0,1,6.2503,2.10366,8.78262,8.78262,0,0,1,2.75489,5.95145h-4.0597a5.7873,5.7873,0,0,0-1.47509-3.65016,4.87125,4.87125,0,0,0-3.4704-1.11791,4.755,4.755,0,0,0-4.0835,1.94175,9.6919,9.6919,0,0,0-1.4584,5.70144v2.07985a10.29131,10.29131,0,0,0,1.362,5.80383,4.516,4.516,0,0,0,3.9859,2.00008,5.2587,5.2587,0,0,0,3.60849-1.07981,5.624,5.624,0,0,0,1.531-3.59182Z"/><polygon class="c" points="607.939 720.683 603.879 720.683 603.879 710.277 593.392 710.277 593.392 720.683 589.316 720.683 589.316 697.228 593.392 697.228 593.392 706.991 603.879 706.991 603.879 697.228 607.939 697.228 607.939 720.683"/><path class="c" d="M643.32971,715.22283h-9.0849l-1.9013,5.46095h-4.2371l8.8599-23.45578h3.65729l8.87661,23.45578h-4.25372Zm-7.942-3.28705h6.79791l-3.399-9.73018Z"/><rect class="d" x="669.66699" y="697.22729" width="4.05972" height="23.45577"/><polygon class="c" points="712.501 720.683 708.425 720.683 697.969 704.042 697.969 720.683 693.894 720.683 693.894 697.228 697.969 697.228 708.458 713.934 708.458 697.228 712.501 697.228 712.501 720.683"/><path class="e" d="M629.95071,357.00049c-34.69232,0-58.47161,21.67651-79.02322,48.533l12.1785,17.7897c18.82712-25.75421,38.8356-46.01752,66.84472-46.01752,32.17258,0,58.92569,23.32111,63.866,53.74411H613.9502v20.3061H714.49191a83.81693,83.81693,0,0,0,.62049-10.15311c0-46.42938-38.2034-84.2023-85.16169-84.2023"/><path class="e" d="M629.95071,505.09821c-34.25341,0-56.85482-29.583-85.5458-72.9874s-55.77281-75.11032-97.77811-75.11032c-46.9591,0-85.16249,37.77292-85.16249,84.2023,0,46.4286,38.20339,84.20151,85.16249,84.20151,34.631,0,58.3884-21.6017,78.9147-48.3926l-12.08931-17.904c-18.82209,25.7424-38.8264,45.99051-66.82539,45.99051-35.6719,0-64.6925-28.66321-64.6925-63.89542s29.0206-63.8971,64.6925-63.8971c34.25259,0,55.6349,28.07651,85.4819,72.91681s55.83591,75.1818,97.842,75.1818a85.28052,85.28052,0,0,0,79.39319-53.7432H686.80731a64.86784,64.86784,0,0,1-56.8566,33.43711"/></g></svg>